<svg width="1300" height="317" viewBox="0 0 1300 317" fill="none" xmlns="http://www.w3.org/2000/svg">
<path fill-rule="evenodd" clip-rule="evenodd" d="M0 216.803V215.01C9.35248 201.297 25.6759 183.978 47.3002 165.495C70.9419 145.287 100.946 123.666 135.166 103.817C203.598 64.1256 288.936 31.5 374 31.5C472.234 31.5 524.114 59.7251 574.51 87.1431L574.524 87.1505C576.775 88.3755 579.024 89.5989 581.274 90.8181C607.567 105.067 633.985 118.731 666.953 127.714C699.916 136.695 739.449 141.003 791.957 136.502C896.855 127.511 964.784 93.5488 1024.26 61.8089C1027.5 60.0849 1030.7 58.3673 1033.89 56.6604C1089.35 26.9462 1138.72 0.500002 1206 0.5C1242.24 0.499999 1273.52 8.38287 1300 20.604V21.7081C1273.55 9.43183 1242.27 1.5 1206 1.5C1138.98 1.5 1089.82 27.834 1034.31 57.567C1031.14 59.2654 1027.95 60.9748 1024.74 62.6911C965.216 94.4512 897.145 128.489 792.043 137.498C739.432 142.008 699.78 137.695 666.69 128.679C633.603 119.663 607.099 105.951 580.797 91.6973C578.543 90.4758 576.291 89.2502 574.035 88.0232C523.677 60.6256 471.98 32.5 374 32.5C289.175 32.5 204.013 65.041 135.668 104.683C101.499 124.501 71.5444 146.088 47.9499 166.255C25.6951 185.277 9.12176 203.017 0 216.803ZM0 236.803V235.01C9.35248 221.297 25.6759 203.978 47.3002 185.495C70.9419 165.287 100.946 143.666 135.166 123.817C203.598 84.1256 288.936 51.5 374 51.5C472.234 51.5 524.114 79.7251 574.51 107.143L574.524 107.151C576.775 108.375 579.024 109.599 581.274 110.818C607.567 125.067 633.985 138.731 666.953 147.714C699.916 156.695 739.449 161.003 791.957 156.502C896.855 147.511 964.784 113.549 1024.26 81.8089C1027.5 80.0849 1030.7 78.3673 1033.89 76.6604C1089.35 46.9462 1138.72 20.5 1206 20.5C1242.24 20.5 1273.52 28.3829 1300 40.604V41.7081C1273.55 29.4318 1242.27 21.5 1206 21.5C1138.98 21.5 1089.82 47.834 1034.31 77.567C1031.14 79.2654 1027.95 80.9748 1024.74 82.6911C965.216 114.451 897.145 148.489 792.043 157.498C739.432 162.008 699.78 157.695 666.69 148.679C633.603 139.663 607.099 125.951 580.797 111.697C578.545 110.477 576.294 109.252 574.041 108.026L574.035 108.023C523.677 80.6256 471.98 52.5 374 52.5C289.175 52.5 204.013 85.041 135.668 124.683C101.499 144.501 71.5444 166.088 47.9499 186.255C25.6951 205.277 9.12176 223.017 0 236.803ZM0 256.803V255.01C9.35248 241.297 25.6759 223.978 47.3002 205.495C70.9419 185.287 100.946 163.666 135.166 143.817C203.598 104.126 288.936 71.5 374 71.5C472.234 71.5 524.114 99.7251 574.51 127.143C576.766 128.371 579.019 129.596 581.274 130.818C607.567 145.067 633.985 158.731 666.953 167.714C699.916 176.695 739.449 181.003 791.957 176.502C896.855 167.511 964.784 133.549 1024.26 101.809C1027.5 100.085 1030.7 98.3673 1033.89 96.6604C1089.35 66.9462 1138.72 40.5 1206 40.5C1242.24 40.5 1273.52 48.3829 1300 60.604V61.7081C1273.55 49.4318 1242.27 41.5 1206 41.5C1138.98 41.5 1089.82 67.834 1034.31 97.5669C1031.14 99.2653 1027.95 100.975 1024.74 102.691C965.216 134.451 897.145 168.489 792.043 177.498C739.432 182.008 699.78 177.695 666.69 168.679C633.603 159.663 607.099 145.951 580.797 131.697C578.545 130.477 576.294 129.252 574.041 128.026L574.035 128.023C523.677 100.626 471.98 72.5 374 72.5C289.175 72.5 204.013 105.041 135.668 144.683C101.499 164.501 71.5444 186.088 47.9499 206.255C25.6951 225.277 9.12176 243.017 0 256.803ZM0 276.803V275.01C9.35248 261.297 25.6759 243.978 47.3002 225.495C70.9419 205.287 100.946 183.666 135.166 163.817C203.598 124.126 288.936 91.5 374 91.5C472.234 91.5 524.114 119.725 574.51 147.143L574.524 147.15C576.775 148.376 579.024 149.599 581.274 150.818C607.567 165.067 633.985 178.731 666.953 187.714C699.916 196.695 739.449 201.003 791.957 196.502C896.855 187.511 964.784 153.549 1024.26 121.809C1027.5 120.085 1030.7 118.367 1033.89 116.66C1089.35 86.9462 1138.72 60.5 1206 60.5C1242.24 60.5 1273.52 68.3829 1300 80.604V81.7081C1273.55 69.4318 1242.27 61.5 1206 61.5C1138.98 61.5 1089.82 87.834 1034.31 117.567C1031.14 119.265 1027.95 120.975 1024.74 122.691C965.216 154.451 897.145 188.489 792.043 197.498C739.432 202.008 699.78 197.695 666.69 188.679C633.603 179.663 607.099 165.951 580.797 151.697C578.549 150.479 576.301 149.256 574.051 148.032L574.035 148.023C523.677 120.626 471.98 92.5 374 92.5C289.175 92.5 204.013 125.041 135.668 164.683C101.499 184.501 71.5444 206.088 47.9499 226.255C25.6951 245.277 9.12176 263.017 0 276.803ZM0 296.803V295.01C9.35248 281.297 25.6759 263.978 47.3002 245.495C70.9419 225.287 100.946 203.666 135.166 183.817C203.598 144.126 288.936 111.5 374 111.5C472.234 111.5 524.114 139.725 574.51 167.143L574.524 167.15C576.775 168.376 579.024 169.599 581.274 170.818C607.567 185.067 633.985 198.731 666.953 207.714C699.916 216.695 739.449 221.003 791.957 216.502C896.855 207.511 964.784 173.549 1024.26 141.809C1027.5 140.085 1030.7 138.367 1033.89 136.66C1089.35 106.946 1138.72 80.5 1206 80.5C1242.24 80.5 1273.52 88.3829 1300 100.604V101.708C1273.55 89.4318 1242.27 81.5 1206 81.5C1138.98 81.5 1089.82 107.834 1034.31 137.567C1031.14 139.265 1027.95 140.975 1024.74 142.691C965.216 174.451 897.145 208.489 792.043 217.498C739.432 222.008 699.78 217.695 666.69 208.679C633.603 199.663 607.099 185.951 580.797 171.697C578.543 170.476 576.291 169.25 574.035 168.023C523.677 140.626 471.98 112.5 374 112.5C289.175 112.5 204.013 145.041 135.668 184.683C101.499 204.501 71.5444 226.088 47.9499 246.255C25.6951 265.277 9.12176 283.017 0 296.803ZM0 316.803V315.01C9.35248 301.297 25.6759 283.978 47.3002 265.495C70.9419 245.287 100.946 223.666 135.166 203.817C203.598 164.126 288.936 131.5 374 131.5C472.234 131.5 524.114 159.725 574.51 187.143L574.524 187.15C576.775 188.376 579.024 189.599 581.274 190.818C607.567 205.067 633.985 218.731 666.953 227.714C699.916 236.695 739.449 241.003 791.957 236.502C896.855 227.511 964.784 193.549 1024.26 161.809C1027.5 160.085 1030.7 158.367 1033.89 156.66C1089.35 126.946 1138.72 100.5 1206 100.5C1242.24 100.5 1273.52 108.383 1300 120.604V121.708C1273.55 109.432 1242.27 101.5 1206 101.5C1138.98 101.5 1089.82 127.834 1034.31 157.567C1031.14 159.265 1027.95 160.975 1024.74 162.691C965.216 194.451 897.145 228.489 792.043 237.498C739.432 242.008 699.78 237.695 666.69 228.679C633.603 219.663 607.099 205.951 580.797 191.697C578.549 190.479 576.301 189.256 574.051 188.032L574.035 188.023C523.677 160.626 471.98 132.5 374 132.5C289.175 132.5 204.013 165.041 135.668 204.683C101.499 224.501 71.5444 246.088 47.9499 266.255C25.6951 285.277 9.12176 303.017 0 316.803Z" fill="#C4C4C4"/>
</svg>
