<svg width="17" height="24" viewBox="0 0 17 24" fill="none" xmlns="http://www.w3.org/2000/svg">
<g clip-path="url(#clip0_315_432)">
<path fill-rule="evenodd" clip-rule="evenodd" d="M11.7504 1.75959C10.2974 1.75959 9.01215 1.06394 8.22005 0C7.42795 1.06394 6.14274 1.75959 4.68968 1.75959C3.9343 1.75959 3.22612 1.57033 2.60713 1.24297L3.71922 4.35294H12.7314L13.8435 1.24297C13.214 1.57545 12.5058 1.75959 11.7504 1.75959ZM8.22005 3.64706C7.75843 3.64706 7.38598 3.28389 7.38598 2.83376C7.38598 2.38363 7.75843 2.02046 8.22005 2.02046C8.68167 2.02046 9.05412 2.38363 9.05412 2.83376C9.05412 3.28389 8.67643 3.64706 8.22005 3.64706Z" fill="#838383"/>
<path d="M6.61095 15.6933L12.7428 8.79999L13.6002 9.7638L7.03962 17.139L6.61095 17.6L6.18227 17.139L3.2002 13.7867L4.05754 12.8228L6.61095 15.6933Z" fill="#838383"/>
<path fill-rule="evenodd" clip-rule="evenodd" d="M0 4.99746V13.3555C0 17.8415 2.72777 21.4527 8.22004 24C13.7123 21.4527 16.4401 17.8415 16.4401 13.3555V4.99746H0ZM14.9293 13.3555C14.9293 17.7085 11.934 20.4962 8.22004 22.3581C4.50607 20.4962 1.51077 17.7085 1.51077 13.3555V6.46549H14.9293V13.3555Z" fill="#838383"/>
</g>
<defs>
<clipPath id="clip0_315_432">
<rect width="17" height="24" fill="white"/>
</clipPath>
</defs>
</svg>
