<svg width="1101" height="136" viewBox="0 0 1101 136" fill="none" xmlns="http://www.w3.org/2000/svg">
<path d="M925.735 25.6911C866.216 57.4512 798.145 91.4894 693.043 100.498C640.432 105.008 600.78 100.695 567.69 91.6785C534.603 82.6633 508.099 68.9508 481.797 54.6973C479.593 53.5029 477.391 52.3046 475.186 51.1049L475.046 51.0291L475.041 51.0261L475.035 51.0232C436.818 30.2309 397.829 9.01927 338.425 0H344.721C400.875 9.5379 438.591 30.0571 475.51 50.1431L475.524 50.1505L475.527 50.152L475.532 50.1552C477.781 51.3786 480.027 52.6005 482.274 53.8181C508.567 68.067 534.985 81.7309 567.953 90.7137C600.916 99.6954 640.449 104.003 692.957 99.5018C797.855 90.5106 865.784 56.5488 925.265 24.8089C928.495 23.0849 931.702 21.3673 934.888 19.6604C947.616 12.8415 960.023 6.19463 972.399 0H974.642C961.675 6.44511 948.678 13.4075 935.313 20.567C932.143 22.2654 928.952 23.9748 925.735 25.6911Z" fill="white"/>
<path d="M1017.69 0C989.571 10.3649 963.014 24.5925 934.888 39.6604C931.702 41.3673 928.495 43.0849 925.265 44.8089C865.784 76.5488 797.855 110.511 692.957 119.502C640.449 124.003 600.916 119.695 567.953 110.714C534.985 101.731 508.567 88.067 482.274 73.8181C480.03 72.602 477.787 71.3818 475.541 70.16L475.538 70.1584L475.527 70.152L475.524 70.1505L475.51 70.1431C425.114 42.7251 373.234 14.5 275 14.5C189.936 14.5 104.598 47.1256 36.166 86.8175C23.4964 94.166 11.4048 101.758 0 109.431V110.636C11.5496 102.848 23.8103 95.14 36.6677 87.6825C105.013 48.041 190.175 15.5 275 15.5C372.98 15.5 424.677 43.6256 475.035 71.0232L475.041 71.0261L475.046 71.0291L475.159 71.0905L475.197 71.1111C477.398 72.3087 479.597 73.5049 481.797 74.6973C508.099 88.9508 534.603 102.663 567.69 111.679C600.78 120.695 640.432 125.008 693.043 120.498C798.145 111.489 866.216 77.4512 925.735 45.6911C928.952 43.9748 932.143 42.2654 935.313 40.567C964.329 25.0236 991.61 10.409 1020.62 0H1017.69Z" fill="white"/>
<path d="M1092.86 3.89556C1032.64 7.29091 986.395 32.0665 934.888 59.6604C931.702 61.3673 928.495 63.0849 925.265 64.8089C871.851 93.3113 811.625 123.606 723.932 136H730.776C815.029 123.016 873.656 93.4812 925.735 65.6911C928.952 63.9748 932.143 62.2654 935.313 60.567C987.177 32.7838 1033.5 7.96845 1094.04 4.83327C1093.66 4.50641 1093.27 4.19357 1092.86 3.89556Z" fill="white"/>
<path d="M1101 23.5706C1036.75 25.0877 988.691 50.8364 934.888 79.6604C931.702 81.3673 928.495 83.0849 925.265 84.8089C891.527 102.812 855.072 121.529 810.694 136H813.89C857.049 121.639 892.709 103.314 925.735 85.6911C928.952 83.9748 932.143 82.2654 935.313 80.567C989.148 51.7283 1037.01 26.0872 1101 24.5708V23.5706Z" fill="white"/>
<path d="M1101 43.5706C1036.75 45.0877 988.691 70.8364 934.888 99.6604C931.702 101.367 928.495 103.085 925.265 104.809C905.623 115.29 885.06 126.013 862.549 136H865.005C886.748 126.261 906.68 115.859 925.735 105.691C928.952 103.975 932.143 102.265 935.313 100.567C989.148 71.7283 1037.01 46.0872 1101 44.5708V43.5706Z" fill="white"/>
<path d="M1101 63.5706C1036.75 65.0877 988.691 90.8364 934.888 119.66C931.702 121.367 928.495 123.085 925.265 124.809C918.304 128.523 911.227 132.268 903.989 136H906.168C912.813 132.56 919.324 129.112 925.735 125.691C928.952 123.975 932.143 122.265 935.313 120.567C989.148 91.7283 1037.01 66.0872 1101 64.5708V63.5706Z" fill="white"/>
<path d="M446.81 136H449.007C405.79 113.809 356.251 94.5 275 94.5C213.502 94.5 151.86 111.553 96.5671 136H99.0509C153.711 112.086 214.442 95.5 275 95.5C354.945 95.5 404.077 114.224 446.81 136Z" fill="white"/>
<path d="M57.7124 136C122.085 101.844 198.679 75.5 275 75.5C372.98 75.5 424.677 103.626 475.035 131.023L475.051 131.032C477.301 132.256 479.549 133.479 481.797 134.697C482.6 135.132 483.402 135.566 484.205 136H486.311C484.965 135.275 483.619 134.547 482.274 133.818C480.029 132.601 477.784 131.38 475.537 130.158L475.51 130.143C425.114 102.725 373.234 74.5 275 74.5C197.808 74.5 120.39 101.367 55.5849 136H57.7124Z" fill="white"/>
<path d="M22.7356 136C27.2952 133.199 31.9411 130.424 36.6677 127.683C105.013 88.041 190.175 55.5 275 55.5C372.98 55.5 424.677 83.6256 475.035 111.023L475.051 111.032C477.301 112.256 479.549 113.479 481.797 114.697C495.537 122.143 509.333 129.442 524.093 136H526.573C511.069 129.228 496.653 121.61 482.274 113.818C480.029 112.601 477.784 111.38 475.537 110.158L475.51 110.143C425.114 82.7251 373.234 54.5 275 54.5C189.936 54.5 104.598 87.1256 36.166 126.817C30.9533 129.841 25.8384 132.906 20.8289 136H22.7356Z" fill="white"/>
<path d="M3.97956 127.975C14.3542 121.093 25.2767 114.289 36.6677 107.683C105.013 68.041 190.175 35.5 275 35.5C372.98 35.5 424.677 63.6256 475.035 91.0232L475.041 91.0261C477.294 92.2522 479.545 93.4767 481.797 94.6973C508.099 108.951 534.603 122.663 567.69 131.679C573.545 133.274 579.605 134.722 585.906 136H591.169C583.052 134.504 575.338 132.726 567.953 130.714C534.985 121.731 508.567 108.067 482.274 93.8181C480.023 92.5985 477.774 91.3747 475.521 90.1493L475.51 90.1431C425.114 62.7251 373.234 34.5 275 34.5C189.936 34.5 104.598 67.1256 36.166 106.817C24.7481 113.44 13.7995 120.26 3.40009 127.159C3.58658 127.436 3.77982 127.708 3.97956 127.975Z" fill="white"/>
<path d="M0 90.6363C11.5496 82.8479 23.8103 75.14 36.6677 67.6825C89.8974 36.8084 153.328 10.2413 218.855 0H212.677C149.132 10.912 87.8311 36.8509 36.166 66.8175C23.4964 74.166 11.4048 81.7576 0 89.4306L0 90.6363Z" fill="white"/>
</svg>
